<?xml version="1.0" encoding="utf-8"?>
<!-- Generator: Adobe Illustrator 15.1.0, SVG Export Plug-In . SVG Version: 6.00 Build 0)  -->
<!DOCTYPE svg PUBLIC "-//W3C//DTD SVG 1.1//EN" "http://www.w3.org/Graphics/SVG/1.1/DTD/svg11.dtd">
<svg version="1.1" id="Layer_1" xmlns="http://www.w3.org/2000/svg" xmlns:xlink="http://www.w3.org/1999/xlink" x="0px" y="0px"
	 width="390px" height="140px" viewBox="0 0 390 140" enable-background="new 0 0 390 140" xml:space="preserve">
<g>
	<polygon fill="#FFFFFF" points="148.693,112.713 119.79,112.713 102.999,47.928 102.743,47.928 84.952,112.713 55.511,112.713 
		32.337,30.368 57.395,30.368 70.904,95.82 71.161,95.82 89.887,30.368 118.7,30.368 135.106,95.82 135.363,95.82 150.039,30.368 
		172.636,30.368 	"/>
	<polygon fill="#FFFFFF" points="185.722,30.368 256.385,30.368 256.385,47.171 209.665,47.171 209.665,62.629 253.872,62.629 
		253.872,79.433 209.665,79.433 209.665,95.871 257.475,95.871 257.475,112.713 185.722,112.713 	"/>
	<polygon fill="#FFFFFF" points="301.783,47.171 270.111,47.171 270.111,30.342 357.462,30.342 357.462,47.171 325.752,47.171 
		325.752,112.713 301.783,112.713 	"/>
</g>
</svg>
